<svg xmlns="http://www.w3.org/2000/svg" enable-background="new 0 0 753 823" viewBox="0 0 753 823" id="leader"><path fill="#cce9ff" d="M650.6 718.6c-3.7 31.8-102.5 40.4-221.4 26.5-119-13.9-220.7 20.6-217-11.3s105.1-63.2 224.1-49.3 218 2.3 214.3 34.1z"></path><path fill="#f7f7f7" d="M214.4 354.5h31.5v125.6h-31.5z"></path><path fill="#f7f7f7" d="M219.5 345.5h21.2v52.8h-21.2z"></path><path fill="#f7f7f7" d="M224.2 339.8H236v29.3h-11.8z"></path><path fill="#f7f7f7" d="M234.1 354.9h-8v-20h8z"></path><path fill="#f7f7f7" d="M229.6 346.2h-.9v-20H229.6zM231.5 339.3h-.8v-20h.8zM213.5 354.2h33.2v1.3h-33.2z"></path><path fill="#f7f7f7" d="M218.7 344.9h22.8v1.3h-22.8zM223.4 339.3h13.1v1h-13.1z"></path><path fill="#f7f7f7" d="M221.5 347.7h1v5.5h-1zM224.2 347.7h1v5.5h-1zM226.9 347.7h1v5.5h-1zM229.7 347.7h1v5.5h-1zM232.4 347.7h1v5.5h-1zM235.1 347.7h1v5.5h-1zM237.9 347.7h1v5.5h-1z" opacity=".29"></path><path fill="#f7f7f7" d="M217.1 359.6h2.4v6.6h-2.4z"></path><path fill="#f7f7f7" d="M221.8 359.6h2.4v6.6h-2.4z" opacity=".29"></path><path fill="#f7f7f7" d="M226.6 359.6h2.4v6.6h-2.4zM231.3 359.6h2.4v6.6h-2.4zM236 359.6h2.4v6.6H236zM240.7 359.6h2.4v6.6h-2.4zM217.1 369.8h2.4v6.6h-2.4zM221.8 369.8h2.4v6.6h-2.4zM226.6 369.8h2.4v6.6h-2.4z"></path><path fill="#f7f7f7" d="M231.3 369.8h2.4v6.6h-2.4z" opacity=".29"></path><path fill="#f7f7f7" d="M236 369.8h2.4v6.6H236zM240.7 369.8h2.4v6.6h-2.4zM217.1 380h2.4v6.6h-2.4zM221.8 380h2.4v6.6h-2.4zM226.6 380h2.4v6.6h-2.4zM231.3 380h2.4v6.6h-2.4z"></path><path fill="#f7f7f7" d="M236 380h2.4v6.6H236zM240.7 380h2.4v6.6h-2.4zM217.1 390.2h2.4v6.6h-2.4z" opacity=".29"></path><path fill="#f7f7f7" d="M221.8 390.2h2.4v6.6h-2.4zM226.6 390.2h2.4v6.6h-2.4zM231.3 390.2h2.4v6.6h-2.4zM236 390.2h2.4v6.6H236zM240.7 390.2h2.4v6.6h-2.4zM217.1 400.4h2.4v6.6h-2.4z"></path><path fill="#f7f7f7" d="M221.8 400.4h2.4v6.6h-2.4z" opacity=".29"></path><path fill="#f7f7f7" d="M226.6 400.4h2.4v6.6h-2.4z"></path><path fill="#f7f7f7" d="M231.3 400.4h2.4v6.6h-2.4z" opacity=".29"></path><path fill="#f7f7f7" d="M236 400.4h2.4v6.6H236zM240.7 400.4h2.4v6.6h-2.4zM217.1 410.7h2.4v6.6h-2.4zM221.8 410.7h2.4v6.6h-2.4zM226.6 410.7h2.4v6.6h-2.4zM231.3 410.7h2.4v6.6h-2.4zM236 410.7h2.4v6.6H236z"></path><path fill="#f7f7f7" d="M240.7 410.7h2.4v6.6h-2.4z" opacity=".29"></path><path fill="#f7f7f7" d="M217.1 420.9h2.4v6.6h-2.4z"></path><path fill="#f7f7f7" d="M221.8 420.9h2.4v6.6h-2.4zM226.6 420.9h2.4v6.6h-2.4z" opacity=".29"></path><path fill="#f7f7f7" d="M231.3 420.9h2.4v6.6h-2.4zM236 420.9h2.4v6.6H236zM240.7 420.9h2.4v6.6h-2.4zM217.1 431.1h2.4v6.6h-2.4zM221.8 431.1h2.4v6.6h-2.4zM226.6 431.1h2.4v6.6h-2.4zM231.3 431.1h2.4v6.6h-2.4z"></path><path fill="#f7f7f7" d="M236 431.1h2.4v6.6H236z" opacity=".29"></path><path fill="#f7f7f7" d="M240.7 431.1h2.4v6.6h-2.4zM217.1 441.3h2.4v6.6h-2.4z"></path><path fill="#f7f7f7" d="M221.8 441.3h2.4v6.6h-2.4z" opacity=".29"></path><path fill="#f7f7f7" d="M226.6 441.3h2.4v6.6h-2.4zM231.3 441.3h2.4v6.6h-2.4zM236 441.3h2.4v6.6H236zM240.7 441.3h2.4v6.6h-2.4zM217.1 451.6h2.4v6.6h-2.4zM221.8 451.6h2.4v6.6h-2.4zM226.6 451.6h2.4v6.6h-2.4z"></path><path fill="#f7f7f7" d="M231.3 451.6h2.4v6.6h-2.4z" opacity=".29"></path><path fill="#f7f7f7" d="M236 451.6h2.4v6.6H236z"></path><path fill="#f7f7f7" d="M240.7 451.6h2.4v6.6h-2.4zM217.1 461.8h2.4v6.6h-2.4z" opacity=".29"></path><path fill="#f7f7f7" d="M221.8 461.8h2.4v6.6h-2.4z"></path><path fill="#f7f7f7" d="M226.6 461.8h2.4v6.6h-2.4z" opacity=".29"></path><path fill="#f7f7f7" d="M231.3 461.8h2.4v6.6h-2.4zM236 461.8h2.4v6.6H236zM240.7 461.8h2.4v6.6h-2.4zM122.8 359.3h50.7v105.8h-50.7z"></path><path fill="#f7f7f7" d="M121.3 357.5h53.6v3h-53.6z"></path><path fill="#f7f7f7" d="M124.5 353.7h47.3v14.2h-47.3z"></path><path fill="#f7f7f7" d="M128.1 347.9h18.7v15.5h-18.7z"></path><path fill="#f7f7f7" d="M138.9 352.2h-10.8v-8.1h7.7z"></path><path fill="#f7f7f7" d="M132.4 337.3h1.1v18.2h-1.1z"></path><circle cx="133" cy="336.3" r=".9" fill="#f7f7f7"></circle><path fill="#f7f7f7" d="M593.3 473.1h-55.5l-6.9-155.5 62.4 13zM351.2 384.3v-52h-8.7v-13.9h-3.1V298h-17.2v-15h-1.5v15h-3.3v-18.8h-1.6V298H305v34.3h-5.6v52h-4.8V479h60v-94.7z"></path><path fill="#8caaa7" d="M442.2 483.1h-29.3l11.4-58.8h17.9z"></path><path fill="#cce9ff" d="M28.1 485.4h696.3V531H28.1zM418.2 374.3v-26.1h-9.5v-9.9h-5V330h-1.8v-14.3h-.4V330h-1.8v8.3h-5v9.9h-9.4v26.1h-1.9v47.3h-14.6v53.9H420V374.3zM472.4 404.2h-45.7v.9h2.1v77.1h41.5v-77.1h2.1z"></path><path fill="#cce9ff" d="M223.8 423.5h40.5v64.3h-40.5zM148.1 456.4h69.6v31.3h-69.6z"></path><path fill="#cce9ff" d="M185.4 386.4h15.3v77h-15.3z"></path><path fill="#cce9ff" d="M188.8 365.8h.8v41.9h-.8zM191.4 369h.8v41.9h-.8z"></path><path fill="#cce9ff" d="M186.6 381.6h9.3v10.3h-9.3zM215 435h26.6v52.8H215zM270.8 379.1h49.9v108.6h-49.9z"></path><path fill="#cce9ff" d="M275.7 375.4h40.1v18.1h-40.1z"></path><path fill="#cce9ff" d="M266.9 381.4h57.6v1.3h-57.6zM261.8 432.9h23.5v54.9h-23.5zM93.3 430.8h27v56.9h-27z"></path><path fill="#cce9ff" d="M102.1 415.3h53.8v72.4h-53.8zM98.9 412.5h58.3v2.8H98.9z"></path><path fill="#cce9ff" d="M104.5 405h23.6v14.7h-23.6zM135.8 405h4v8.9h-4zM143.7 405h4.4v8.9h-4.4zM78.7 465.7h28.2v22H78.7z"></path><path fill="#cce9ff" d="M68 456.4h13.3v31.3H68z"></path><path fill="#cce9ff" d="M51.9 476.7h22.8v11H51.9zM315.8 463.3h281v24.4h-281z"></path><path fill="#cce9ff" d="M574.3 395.8c-1.8 0-3.2 1.4-3.4 3.1l-4-.1v-1.2c0-4.9-.8-9.7-2.5-14.2l3.3-1.2c.5 1.2 1.7 2 3.1 2 1.9 0 3.4-1.5 3.4-3.4s-1.5-3.4-3.4-3.4-3.4 1.5-3.4 3.4c0 .3.1.7.1 1l-3.3 1.2c-1.9-5-4.8-9.7-8.5-13.8l2.6-2.4c.6.6 1.4.9 2.3.9 1.9 0 3.4-1.5 3.4-3.4s-1.5-3.4-3.4-3.4-3.4 1.5-3.4 3.4c0 .8.3 1.6.8 2.2l-2.6 2.4c-.3-.3-.5-.6-.8-.8-3.9-3.9-8.5-7-13.4-9l1.4-3.5c.3.1.7.2 1 .2 1.9 0 3.4-1.5 3.4-3.4s-1.5-3.4-3.4-3.4-3.4 1.5-3.4 3.4c0 1.4.8 2.6 2 3.1l-1.4 3.5c-4.4-1.8-9.2-2.8-14.1-3l.2-4.7h.1c1.9 0 3.4-1.5 3.4-3.4s-1.5-3.4-3.4-3.4-3.4 1.5-3.4 3.4c0 1.7 1.3 3.1 2.9 3.3l-.2 4.8h-1.2c-4.7 0-9.3.8-13.7 2.3l-1.4-3.9c1.2-.5 2.1-1.7 2.1-3.1 0-1.9-1.5-3.4-3.4-3.4s-3.4 1.5-3.4 3.4 1.5 3.4 3.4 3.4c.3 0 .6 0 .9-.1l1.4 3.9c-5.3 1.9-10.1 4.8-14.3 8.7l-2.5-2.6c.6-.6.9-1.4.9-2.3 0-1.9-1.5-3.4-3.4-3.4s-3.4 1.5-3.4 3.4 1.5 3.4 3.4 3.4c.8 0 1.6-.3 2.2-.8l2.5 2.6c-.3.3-.6.5-.8.8-3.5 3.5-6.3 7.5-8.3 11.8l-3.1-1.4c.1-.3.2-.7.2-1.1 0-1.9-1.5-3.4-3.4-3.4s-3.4 1.5-3.4 3.4 1.5 3.4 3.4 3.4c1.4 0 2.5-.8 3.1-2l3.1 1.4c-2.2 4.9-3.5 10.2-3.7 15.7l-4-.1c0-1.8-1.5-3.3-3.4-3.3s-3.4 1.5-3.4 3.4 1.5 3.4 3.4 3.4c1.8 0 3.2-1.4 3.4-3.1l4 .1v1.2c0 4.9.8 9.7 2.5 14.2l-3 1.1c-.5-1.2-1.7-2-3.1-2-1.9 0-3.4 1.5-3.4 3.4s1.5 3.4 3.4 3.4 3.4-1.5 3.4-3.4c0-.3-.1-.7-.1-1l3.3-1.2c1.9 5 4.8 9.7 8.5 13.8l-2.6 2.4c-.6-.6-1.4-.9-2.3-.9-1.9 0-3.4 1.5-3.4 3.4s1.5 3.4 3.4 3.4 3.4-1.5 3.4-3.4c0-.8-.3-1.6-.8-2.2l2.6-2.4c.3.3.5.6.8.8 2.6 2.6 5.6 4.9 8.7 6.7l-20.4 37.5h-3.7v1.1h-1.8v2.1h93v-2.1h-1.8v-1.1h-3.7L546 433.8c2.7-1.6 5.3-3.4 7.6-5.6l3.3 3.5c-.7.6-1.2 1.5-1.2 2.5 0 1.9 1.5 3.4 3.4 3.4s3.4-1.5 3.4-3.4-1.5-3.4-3.4-3.4c-.7 0-1.4.2-1.9.6l-3.3-3.5c.3-.3.6-.5.8-.8 3.5-3.5 6.3-7.5 8.3-11.8l3.7 1.7c-.1.3-.1.5-.1.8 0 1.9 1.5 3.4 3.4 3.4s3.4-1.5 3.4-3.4-1.5-3.4-3.4-3.4c-1.4 0-2.7.9-3.2 2.2l-3.6-1.7c2.2-4.9 3.5-10.2 3.7-15.7l4 .1c0 1.8 1.5 3.3 3.4 3.3s3.4-1.5 3.4-3.4-1.5-3.4-3.4-3.4zm-8.4 1.8v1.1l-11.6-.4v-.7c0-3.4-.6-6.7-1.7-9.8l11-4c1.5 4.3 2.3 9 2.3 13.8zm-12.2.7-26-.8c0-.2 0-.3-.1-.5l24.4-9c1.1 3 1.7 6.2 1.7 9.6v.7zm-56.5-1.4 26 .8c0 .2 0 .3.1.5l-24.4 9c-1.1-3-1.7-6.2-1.7-9.6v-.7zm30-.7 19-17.8c2.5 2.7 4.4 5.8 5.7 9.2l-24.4 9c-.1-.1-.2-.3-.3-.4zm-.2-.3c-.1-.1-.3-.2-.5-.3l9.9-24c3.6 1.5 6.9 3.8 9.6 6.6l-19 17.7zm-.9-.5c-.1 0-.3-.1-.4-.1l.8-26c3.3.1 6.5.8 9.5 2l-9.9 24.1zm-.8-.1c-.2 0-.3 0-.5.1l-8.6-24.5c2.9-1 6-1.5 9.2-1.5h.7l-.8 25.9zm-.8.2c-.2.1-.3.2-.5.3l-17.8-19c2.8-2.5 6-4.6 9.6-5.9l8.7 24.6zm-.8.6c-.1.1-.2.3-.3.4l-23.6-10.9c1.5-3.2 3.6-6.1 6.1-8.5l17.8 19zm-.4.7c-.1.2-.1.3-.1.5l-26-.8c.1-3.8 1-7.3 2.5-10.6l23.6 10.9zm.1 1.7c.1.1.1.3.2.4l-.2.3-18.7 17.6c-2.5-2.7-4.4-5.8-5.7-9.2l24.4-9.1zm-.5 1.7-11.8 21.7c-2.3-1.3-4.3-3-6.2-4.9l18-16.8zm1.3-.7c.1.1.2.1.2.1l-9.9 24c-1-.4-1.9-.9-2.8-1.3l12.5-22.8zm.5.2c.1 0 .3.1.4.1l-.8 26c-3.3-.1-6.5-.8-9.5-2l9.9-24.1zm.7 26.1h-.7l.8-26c.2 0 .3 0 .5-.1l8.6 24.5c-2.8 1.1-5.9 1.6-9.2 1.6zm1-26.1c.1-.1.2-.1.4-.2l12.4 22.8c-1.3.7-2.7 1.4-4.1 1.9l-8.7-24.5zm2 1.4 16.2 17.2c-1.5 1.4-3.1 2.6-4.8 3.6l-11.4-20.8zm-.7-1.3-.5-.9c0-.1.1-.1.1-.2l23.6 10.9c-1.5 3.2-3.6 6.1-6.1 8.5l-17.1-18.3zm-.1-1.4c.1-.2.1-.3.1-.5l26 .8c-.1 3.8-1 7.3-2.5 10.6l-23.6-10.9zm-13.3 25.8-4.4 10.8c-1.4-.6-2.7-1.2-4-1.9l5.6-10.3c.9.5 1.8 1 2.8 1.4zm.4.1c3 1.2 6.3 1.9 9.7 2.1l-.4 11.7c-4.8-.2-9.4-1.2-13.7-2.9l4.4-10.9zm10 2.1h.7c3.3 0 6.5-.6 9.4-1.6l3.9 11c-4.2 1.5-8.7 2.2-13.3 2.2h-1.1l.4-11.6zm10.5-1.7c1.5-.5 2.9-1.2 4.2-1.9l5.6 10.3c-1.9 1-3.9 1.9-5.9 2.7l-3.9-11.1zm28.2-41.3-11 4c-1.3-3.5-3.3-6.7-5.8-9.4l8.5-8c3.7 4 6.4 8.5 8.3 13.4zm-9.3-14.4.8.8-8.5 8c-2.7-2.9-6.1-5.2-9.8-6.8l4.4-10.8c4.8 2 9.2 5 13.1 8.8zm-13.5-9-4.4 10.8c-3-1.2-6.3-1.9-9.7-2.1l.4-11.7c4.8.3 9.4 1.3 13.7 3zm-15.2-2.9h1.1l-.4 11.6h-.7c-3.3 0-6.5.6-9.4 1.6l-3.9-11c4.3-1.4 8.7-2.2 13.3-2.2zm-13.6 2.3 3.9 11c-3.7 1.3-7 3.4-9.8 6l-8-8.5c4.1-3.8 8.8-6.6 13.9-8.5zm-15 9.6.8-.8 8 8.5c-2.6 2.5-4.7 5.4-6.3 8.6l-10.6-4.9c2-4.2 4.7-8.1 8.1-11.4zm-8.2 11.8 10.6 4.9c-1.5 3.3-2.4 7-2.6 10.8l-11.7-.4c.3-5.4 1.5-10.6 3.7-15.3zm-3.6 16.8v-1.1l11.6.4v.7c0 3.4.6 6.7 1.7 9.8l-11 4c-1.5-4.4-2.3-9-2.3-13.8zm2.5 14.2 11-4c1.3 3.5 3.3 6.7 5.8 9.4l-8.5 8c-3.7-4-6.5-8.5-8.3-13.4zm9.3 14.4-.8-.8 8.5-8c1.8 1.9 4 3.6 6.3 5l-5.6 10.3c-3-1.8-5.8-3.9-8.4-6.5zm68.8 45h-80.4l20.2-37.2c1.3.7 2.7 1.4 4.1 2l-1.4 3.5c-.3-.1-.7-.2-1-.2-1.9 0-3.4 1.5-3.4 3.4s1.5 3.4 3.4 3.4 3.4-1.5 3.4-3.4c0-1.4-.8-2.6-2-3.1l1.4-3.5c4.4 1.8 9.2 2.8 14.1 3l-.1 3.5c-1.8 0-3.3 1.5-3.3 3.4s1.5 3.4 3.4 3.4 3.4-1.5 3.4-3.4c0-1.8-1.4-3.2-3.1-3.4l.1-3.5h1.2c4.7 0 9.3-.8 13.7-2.3l1.2 3.4c-1.1.5-1.9 1.7-1.9 3.1 0 1.9 1.5 3.4 3.4 3.4s3.4-1.5 3.4-3.4-1.5-3.4-3.4-3.4c-.4 0-.7.1-1.1.2l-1.2-3.4c2.1-.7 4.1-1.7 6-2.7l19.9 37.2zm-20-38.5-5.6-10.3c1.8-1.1 3.4-2.3 5-3.7l8 8.5c-2.3 2.2-4.8 4-7.4 5.5zm8.5-6.5-.8.8-8-8.5c2.6-2.5 4.7-5.4 6.3-8.6l10.6 4.9c-2 4.1-4.8 8-8.1 11.4zm8.2-11.8-10.6-4.9c1.5-3.3 2.4-7 2.6-10.8l11.7.4c-.3 5.3-1.5 10.5-3.7 15.3zM582.5 424.2h43.4v63.6h-43.4z"></path><path fill="#cce9ff" d="M619.5 448.9h43.4v38.5h-43.4zM451.3 443.2h24.3v32.3h-24.3z"></path><path fill="#cce9ff" d="M604.2 363.7h30.7v124h-30.7zM685.4 487.7h-40.5v-72.4h30.7z"></path><path fill="#cce9ff" d="M667.7 471.2h35.4v16.5h-35.4zM626.9 337.8h1.1v33.7h-1.1zM630.5 345h1.1v33.7h-1.1zM623.7 349.7h1.1v33.7h-1.1zM646.5 409.5H661v11.4h-14.5z"></path><path fill="#cce9ff" d="M648.1 405.4h11.3v6.4h-11.3zM666.7 412.8h2.8v4.6h-2.8zM670.5 408.6h4v8.8h-4z"></path><path fill="#2a94f4" d="M623.9 381.5c0-.5-.4-.9-.8-.9s-.8.4-.8.9.4.9.8.9c.5.1.8-.3.8-.9zM710.2 496.2l-4.9-32.9h-10v-27.2h1.2v-2.5h-4.9V423h-.6v10.6h-3.3v-8.7h-.6v8.7h-20.4v2.5h1.4v55.3h-23.2v-24.8h-13.2v-60.9h1.2v-3h-2.6v-3.8h-3.1v-9.6h-3.6v-6.8h-.9v6.8h-2l-1.2 3.8h-8v5.8h-20.9v3.8h-2.7v3h1.2v39.6h-17.5v39l-19.4-8.6v-37.8h3.1v-2.8h-5.5v-7.6h-23.6v7.6h-7.8v-7.6h-3.9v7.6h-4v-7.6h-4.4v7.6H497v2.8h1.4v52.4h-8.9v-.6h-1.6v-14.9h1.6v-1.2h-1.6v-15h1.6v-1.2h-1.6v-14.9h1.6v-1.2h-1.6v-14.9h1.6v-1.2h-1.6v-14.9h1.6v-1.2h-1.6v-15.5h2.8v-1.2h1.4v-3.3H466v-3.6h.8v-1.1h-14.2v1.1h.9v3.6H447v3.3h1.4v1.2h2.7v15.5h-1.6v1.2h1.6v14.9h-1.6v1.2h1.6v14.9h-1.6v1.2h1.6v14.9h-1.6v1.2h1.6v15h-1.6v1.2h1.6v14.9h-1.6v1.2h1.6v12.2h-8.9V456h-35.8v34.3h-5.8V383.4h-4.3v2.7l-8 2v-1.8H384v2.8l-7.9 2V389h-4.3v3.1l-8 2v-1.7h-4.3v2.7l-7.9 2v-1.5h-4.3v105h-6.1v-56h-22.4V479h-23v-29.3h-2.9v-9.6h1.7v-1h-7.4v-3h-.8v3H284v-15.6h-.6v15.6h-3.1v1h1.8v9.6h-15.2v22.4h-14.7l-7.8 28.5H229v-93.1h-20.5v-3.3h1.1V403h-15.5v1.2h1.2v72.4h-9.7v-24.1h3.5v-2.2h-24.4v-14.5h-4.6v-3h-10.4v3h-8.4v51.9h-27.6v-38.5H90.4v30.4H70.2v19.5H55.6v-24.5H36.4v20.9H19.1V531h714.8v-34.8z"></path><path fill="#fff" d="M143.7 439.6h1.8v1.8h-1.8zM147.3 439.6h1.8v1.8h-1.8zM143.7 443.7h1.8v1.8h-1.8zM147.3 443.7h1.8v1.8h-1.8zM143.7 447.8h1.8v1.8h-1.8zM151.3 439.6h1.8v1.8h-1.8z" opacity=".52"></path><path fill="#fff" d="M273.5 386.3h1.2v6.7h-1.2zM277.7 386.3h1.2v6.7h-1.2zM281.9 386.3h1.2v6.7h-1.2zM286 386.3h1.2v6.7H286zM290.2 386.3h1.2v6.7h-1.2zM294.4 386.3h1.2v6.7h-1.2zM298.5 386.3h1.2v6.7h-1.2zM302.7 386.3h1.2v6.7h-1.2zM306.9 386.3h1.2v6.7h-1.2zM311 386.3h1.2v6.7H311zM315.2 386.3h1.2v6.7h-1.2zM273.5 395.6h1.2v6.7h-1.2zM277.7 395.6h1.2v6.7h-1.2zM281.9 395.6h1.2v6.7h-1.2zM286 395.6h1.2v6.7H286zM290.2 395.6h1.2v6.7h-1.2zM294.4 395.6h1.2v6.7h-1.2zM298.5 395.6h1.2v6.7h-1.2zM302.7 395.6h1.2v6.7h-1.2zM306.9 395.6h1.2v6.7h-1.2zM311 395.6h1.2v6.7H311zM315.2 395.6h1.2v6.7h-1.2zM273.5 404.9h1.2v6.7h-1.2zM277.7 404.9h1.2v6.7h-1.2zM281.9 404.9h1.2v6.7h-1.2zM286 404.9h1.2v6.7H286zM290.2 404.9h1.2v6.7h-1.2zM294.4 404.9h1.2v6.7h-1.2zM298.5 404.9h1.2v6.7h-1.2zM302.7 404.9h1.2v6.7h-1.2zM306.9 404.9h1.2v6.7h-1.2zM311 404.9h1.2v6.7H311zM315.2 404.9h1.2v6.7h-1.2zM286 414.3h1.2v6.7H286zM290.2 414.3h1.2v6.7h-1.2zM294.4 414.3h1.2v6.7h-1.2zM298.5 414.3h1.2v6.7h-1.2zM302.7 414.3h1.2v6.7h-1.2zM306.9 414.3h1.2v6.7h-1.2zM311 414.3h1.2v6.7H311zM315.2 414.3h1.2v6.7h-1.2zM290.2 424.1h1.2v6.7h-1.2zM294.4 424.1h1.2v6.7h-1.2zM298.5 424.1h1.2v6.7h-1.2zM302.7 424.1h1.2v6.7h-1.2zM306.9 424.1h1.2v6.7h-1.2zM311 424.1h1.2v6.7H311zM315.2 424.1h1.2v6.7h-1.2z" opacity=".5"></path><path fill="#fff" d="M354.1 402.9h2.9v7.2h-2.9zM354.1 416.8h2.9v7.2h-2.9zM354.1 430.6h2.9v7.2h-2.9zM354.1 444.5h2.9v7.2h-2.9zM354.1 457.6h2.9v7.2h-2.9zM354.1 471.4h2.9v7.2h-2.9zM366.4 402.9h2.9v7.2h-2.9zM366.4 416.8h2.9v7.2h-2.9zM366.4 430.6h2.9v7.2h-2.9zM366.4 444.5h2.9v7.2h-2.9zM366.4 457.6h2.9v7.2h-2.9zM366.4 471.4h2.9v7.2h-2.9zM378.6 402.9h2.9v7.2h-2.9zM378.6 416.8h2.9v7.2h-2.9zM378.6 430.6h2.9v7.2h-2.9zM378.6 444.5h2.9v7.2h-2.9zM378.6 457.6h2.9v7.2h-2.9zM378.6 471.4h2.9v7.2h-2.9zM390.9 402.9h2.9v7.2h-2.9zM390.9 416.8h2.9v7.2h-2.9zM390.9 430.6h2.9v7.2h-2.9zM390.9 444.5h2.9v7.2h-2.9zM390.9 457.6h2.9v7.2h-2.9zM390.9 471.4h2.9v7.2h-2.9z" opacity=".33"></path><path fill="#fff" d="M308.1 301.9h2.4v6.3h-2.4zM313.9 301.9h2.4v6.3h-2.4zM319.8 301.9h2.4v6.3h-2.4zM325.7 301.9h2.4v6.3h-2.4zM308.1 312.4h2.4v6.3h-2.4zM313.9 312.4h2.4v6.3h-2.4zM319.8 312.4h2.4v6.3h-2.4zM325.7 312.4h2.4v6.3h-2.4zM308.1 323h2.4v6.3h-2.4zM313.9 323h2.4v6.3h-2.4zM332.3 301.9h2.4v6.3h-2.4z" opacity=".5"></path><path fill="#fff" d="M149.7 366.1h1.5v5.8h-1.5zM155.1 366.1h1.5v5.8h-1.5zM161.3 366.1h1.5v5.8h-1.5zM166.7 366.1h1.5v5.8h-1.5zM137.9 366.1h1.5v5.8h-1.5zM143.2 366.1h1.5v5.8h-1.5zM149.7 376.2h1.5v5.8h-1.5zM155.1 376.2h1.5v5.8h-1.5zM161.3 376.2h1.5v5.8h-1.5zM166.7 376.2h1.5v5.8h-1.5zM137.9 376.2h1.5v5.8h-1.5zM143.2 376.2h1.5v5.8h-1.5zM149.7 386.3h1.5v5.8h-1.5zM155.1 386.3h1.5v5.8h-1.5zM161.3 386.3h1.5v5.8h-1.5zM166.7 386.3h1.5v5.8h-1.5zM137.9 386.3h1.5v5.8h-1.5zM143.2 386.3h1.5v5.8h-1.5z" opacity=".4"></path><path fill="#fff" d="M431.9 410.7h2.3v9h-2.3zM439.1 410.7h2.3v9h-2.3zM445.8 410.7h2.3v9h-2.3z" opacity=".5"></path><path fill="#fff" d="M593.3 412.5h1.8v5.1h-1.8zM598.9 412.5h1.8v5.1h-1.8z" opacity=".33"></path><path fill="#fff" d="M593.3 412.5h1.8v5.1h-1.8zM598.9 412.5h1.8v5.1h-1.8zM604.2 412.5h1.8v5.1h-1.8zM609.8 412.5h1.8v5.1h-1.8zM593.3 421.6h1.8v5.1h-1.8zM598.9 421.6h1.8v5.1h-1.8z" opacity=".33"></path><path fill="#fff" d="M593.3 421.6h1.8v5.1h-1.8zM598.9 421.6h1.8v5.1h-1.8zM604.2 421.6h1.8v5.1h-1.8zM609.8 421.6h1.8v5.1h-1.8zM593.3 431.3h1.8v5.1h-1.8zM598.9 431.3h1.8v5.1h-1.8z" opacity=".33"></path><path fill="#fff" d="M593.3 431.3h1.8v5.1h-1.8zM598.9 431.3h1.8v5.1h-1.8zM604.2 431.3h1.8v5.1h-1.8zM609.8 431.3h1.8v5.1h-1.8zM615.8 412.5h1.8v5.1h-1.8zM615.8 421.6h1.8v5.1h-1.8zM621.4 412.5h1.8v5.1h-1.8zM454.5 397.5h1.9v7.9h-1.9zM464 397.5h1.9v7.9H464zM473.5 397.5h1.9v7.9h-1.9zM483 397.5h1.9v7.9H483zM454.5 413.8h1.9v7.9h-1.9zM464 413.8h1.9v7.9H464zM473.5 413.8h1.9v7.9h-1.9zM483 413.8h1.9v7.9H483zM454.5 430.4h1.9v7.9h-1.9zM464 430.4h1.9v7.9H464zM473.5 430.4h1.9v7.9h-1.9zM483 430.4h1.9v7.9H483zM454.5 447.1h1.9v7.9h-1.9zM464 447.1h1.9v7.9H464zM473.5 447.1h1.9v7.9h-1.9zM483 447.1h1.9v7.9H483zM454.5 462.3h1.9v7.9h-1.9zM464 462.3h1.9v7.9H464zM473.5 462.3h1.9v7.9h-1.9zM454.5 479.2h1.9v7.9h-1.9zM464 479.2h1.9v7.9H464zM473.5 479.2h1.9v7.9h-1.9zM483 462.3h1.9v7.9H483zM670.5 439.3h2v4.5h-2zM670.5 446.6h2v4.5h-2zM675.5 439.3h2v4.5h-2z" opacity=".33"></path><path fill="#0e538c" d="m619.2 485.9 6.7 54.9c.6 4.8-2.8 9.1-7.5 9.7l-74.8 9.3c-4.7.6-9-2.8-9.6-7.6l-6.7-54.9 91.9-11.4z"></path><path fill="#ffbe55" d="m527 494.4 1.7 14.2c1.3 10.5 10.8 18 21.2 16.7l1.6-.2.9 7c.3 2.3 2.3 3.9 4.5 3.6 2.2-.3 3.8-2.3 3.5-4.6l-.9-7 36.3-4.5.9 7c.3 2.3 2.3 3.9 4.5 3.6 2.2-.3 3.8-2.3 3.5-4.6l-.9-7h.2c10.4-1.3 17.8-10.9 16.5-21.4l-1.7-14.2-23.9 3-1.1-9.4c-.5-4.1-4.2-7-8.3-6.5l-29.4 3.7c-4.1.5-7 4.3-6.5 8.4l1.1 9.4-23.7 2.8zm71.1 31.3c-.2-1.4.8-2.7 2.2-2.9 1.4-.2 2.7.8 2.9 2.3.2 1.4-.8 2.7-2.2 2.9-1.5.2-2.8-.8-2.9-2.3zm-40.4-40.3c-.3-2.3 1.4-4.5 3.7-4.8l20.8-2.6c2.3-.3 4.4 1.4 4.7 3.7l.6 5-29.2 3.6-.6-4.9zm-4 45.9c-.2-1.4.8-2.7 2.2-2.9 1.4-.2 2.7.8 2.9 2.3.2 1.4-.8 2.7-2.2 2.9-1.5.1-2.7-.9-2.9-2.3z"></path><path fill="#0b4870" d="M391.4 585.1c-1.2-33.7-1.6-134.3 18.2-182 0 0 60.2-30.1 46.6 32.2L417.8 581c5.8 54.4-14.1 99.3-22.5 124.5l-1 13.8-8.1-2.9.1-3.9-3.3 2.8-26.2-9.2 3.4-3c16.5 6.7 26.2-.7 26.2-.7l5.1-115.5c0-.6-.1-1.1-.1-1.8z"></path><path fill="#dba17b" d="M222.4 206.3s.7-.2 2.8.2v-.4c-.1-1.8 1.5-2.5 2.1-2.5.6 0 5.4 2.2 5.8 2.5.3.2 3.9 5 5.3 6.7l4 1.8-3.9 7.9-3-1.6-9.9-1.2c-.6-.1-2.1-.7-2.2-1.3-.1-.5.1-1.4.3-1.8-.9-.2-1.6-.6-1.7-1.4-.1-1.1.6-1.8.9-2-.8-.3-1.4-.8-1.5-1.5 0-.9.5-1.4.8-1.7-.7-.4-1.1-.9-1.1-1.6 0-1.6 1.3-2.1 1.3-2.1z"></path><path fill="#f7f7f7" d="m241.4 213.1-5.1 9.2 4 2.1 5-9.2z"></path><path fill="#0e538c" d="m340.2 248.8 63.3 17.6c13.8 3.5 25.2 8.4 25.1 22.5-.1 11.9-10.5 24.2-24.1 19-27.3-10.6-46.4-20.6-77.4-37.3-.1 0-.1-.1-.2-.1L238.1 224l5.3-10.1 96.8 34.9zM477.3 592.4c-11.2-31.7-41.4-127.6-36.6-179.2 0 0 48.5-47 54 16.5l11.2 151c16 18.3 11.4 98.7 10.9 125.3l3.2 13.5-8.6-.3-1.1-3.8-2.3 3.7-27.7-.9 2.3-3.9c17.7 1.4 24.8-8.6 24.8-8.6L478 594c-.2-.5-.5-1-.7-1.6z"></path><path fill="#ce9474" d="M441.6 245.4s4 16.4 8.2 30.8L412 292.5c1.9-7.3 2.3-30.2-4.4-28.9l16.6-28.4 10.8-.5 6.6 10.7z"></path><path fill="#0b4870" d="M470.9 404.9c.7.7 1.5 1.2 2.3 1.8 5.5 3.6 12 3.2 19.8 2.8 2.5-.1 5.1-.1 7.9-.1 10.1.3 22.2 2.3 37.2 12.3-3.5-9-14.6-18.2-26.6-26-5.8-3.9-11.8-7.3-17.3-10.3-9.4-5.2-17.3-8.7-20-9.9-.6-.3-.9-.4-.9-.4l-2.4 29.8zM413.2 281c-20.5 19.1-23.3 60.3 22.7 128.5L413.2 281z"></path><path fill="#f7f7f7" d="M402.4 426.5c9.9 5.4 81.9 8.9 91.8-.8-5.1-53.3.2-90.4 3.4-115 2.9-23.7 3.8-35.9-8.5-39.7l-44.4-15-28.7 30.4-2.9-6.3c-19.8 41.1-1.1 99.8-10.7 146.4z"></path><path fill="#f2f2f2" d="M461 330.3c-5.8 23.3 6.7 48.6-9.6 68-11.4 14.1-29.9 13.8-46.8 13.6-.5 5-1.1 9.8-2.1 14.5 9.9 5.4 81.9 8.9 91.8-.8-5.1-53.3.2-90.4 3.4-115 .8-6.2 1.4-11.6 1.7-16.3-18.2 4.5-34.6 19.3-38.4 36zM444.7 255.9 416 286.4s12.6 16.9 15 19.3l13.7-49.8zM409.7 296.8l6.3-10.4-2.9-6.3z"></path><path fill="#0e538c" d="M453.8 360.7c22 30.8 71.6 38.2 85.8 64.9 2.1-47.7-45.5-64.8-45.5-64.8 3.1-37.7 6.7-55.8 7.8-69.7.6-8.2-.3-16.3-7.9-19.1l-49.2-16s.4.6.4.8c-10.9 39.2-10.5 77.2 8.6 103.9z"></path><path fill="#0b4870" d="M454 359.6c-7.6-24.8-6.1-36.8-2.1-44.9l-7.7-4 6.9-3.7c-8.3-21.7-6-47.6-5.8-50.8-11 39.3-10.9 79 8.7 103.4z"></path><path fill="#ffbe55" d="m414.3 298-1.9-4.2 3.8-5.7 3.7 5.3-3.6 4.8c-1.1 33.3 16.7 73.3 73.9 80.8l12.3 17.4-17.6 7.7c-50.5-14.4-65.9-48.9-70.1-74.9l-.1-.3c-2.6-16.2-.7-28.9-.4-30.9z"></path><path fill="#dba17b" d="m404.7 205-6.9 10.6-3.5 10.7 1 2.6-8.6 16.4 6.5 3 3.8 19.5c0 1 .8 1.8 1.8 1.9 6.9.6 27.6-.2 32.7-19.3 4.3-16.1 5.4-24.5 5.4-24.5s-1.6-15-32.2-20.9z"></path><path fill="#0e538c" d="M422.2 237.8c-4.2-1.8-5.2-10.4-5.7-17.7-.2-2.7-2.4-4.9-5.1-4.8l-8.4 2c-15.6 2.9-12.2-25.4 3-30 0 0-1.4 3.1 10.8 8.8 6.2 2.9 15.9 5.2 23.1 7.1 6.9 1.8 11.2 8.7 9.9 15.8l-6.1 32.8s-15.4-4.8-9.9-16.5c5.3-11.6-10.8-16.7-11.6 2.5z"></path><path fill="#dba17b" d="M573 484.6s-.7-.4-1.9-2.1l-.3.3c-1.2 1.4-2.8.7-3.2.3-.4-.4-2.4-5.4-2.5-5.9-.1-.4.5-6.3.8-8.5l-1.7-4.1 8.2-3 1.1 3.3 6.3 7.8c.4.5 1 1.9.6 2.5-.3.4-1.1.9-1.4 1.2.5.8.7 1.6.3 2.2-.6.9-1.7.9-2 .8.4.8.5 1.6 0 2.1-.5.6-1.3.7-1.8.7.2.8.2 1.4-.3 1.9-.9 1-2.2.5-2.2.5z"></path><path fill="#f7f7f7" d="m563.9 466.4 9.9-3.1-1.4-4.2-9.9 3z"></path><path fill="#0e538c" d="M480.2 280.7c8.1-8.6 24.1-10.1 30.3 3.1 12.6 26.8 19.5 47.4 30.5 81v.2l32.5 95.7-10.7 3.5-46.1-92.8v-.1L483 314.6c-7.6-12.2-12.5-23.7-2.8-33.9z"></path></svg>